<svg width="1584" height="396" viewBox="0 0 1584 396" fill="none" xmlns="http://www.w3.org/2000/svg">
<rect width="1584" height="396" fill="#F5F5F5"/>
<g id="Awesome banner" clip-path="url(#clip0_0_1)">
<rect width="1584" height="396" fill="url(#paint0_linear_0_1)"/>
<ellipse id="Ellipse 2" cx="323" cy="64" rx="285" ry="288" fill="url(#paint1_linear_0_1)" fill-opacity="0.1"/>
<g id="copyright">
<path d="M75.95 334.52L72.30 334.52L72.30 311.16L77.20 311.16L83.70 330.04Q83.60 329.02 83.50 327.62Q83.41 326.23 83.33 324.79Q83.25 323.35 83.25 322.23L83.25 311.16L86.90 311.16L86.90 334.52L82 334.52L75.57 315.64Q75.63 316.57 75.73 317.88Q75.82 319.19 75.89 320.57Q75.95 321.94 75.95 323.10L75.95 334.52M98.80 334.84Q96.46 334.84 94.67 333.96Q92.88 333.08 91.89 331.53Q90.90 329.98 90.90 327.93Q90.90 325.78 92.13 324.18Q93.36 322.58 95.34 322.17L95.34 322.10Q93.65 321.75 92.61 320.38Q91.57 319 91.57 317.11Q91.57 315.26 92.48 313.85Q93.39 312.44 95.02 311.64Q96.66 310.84 98.80 310.84Q100.94 310.84 102.59 311.64Q104.24 312.44 105.15 313.85Q106.06 315.26 106.06 317.11Q106.06 319 105.01 320.38Q103.95 321.75 102.26 322.10L102.26 322.17Q104.24 322.58 105.47 324.18Q106.70 325.78 106.70 327.93Q106.70 329.98 105.71 331.53Q104.72 333.08 102.93 333.96Q101.14 334.84 98.80 334.84M98.80 320.73Q100.30 320.73 101.23 319.82Q102.16 318.90 102.16 317.46Q102.16 315.99 101.23 315.08Q100.30 314.17 98.80 314.17Q97.30 314.17 96.37 315.08Q95.44 315.99 95.44 317.46Q95.44 318.90 96.37 319.82Q97.30 320.73 98.80 320.73M98.80 331.45Q100.56 331.45 101.68 330.42Q102.80 329.40 102.80 327.74Q102.80 326.04 101.68 325Q100.56 323.96 98.80 323.96Q97.04 323.96 95.92 325Q94.80 326.04 94.80 327.74Q94.80 329.40 95.92 330.42Q97.04 331.45 98.80 331.45M114.35 334.52L110.70 334.52L110.70 311.16L115.60 311.16L122.10 330.04Q122 329.02 121.90 327.62Q121.81 326.23 121.73 324.79Q121.65 323.35 121.65 322.23L121.65 311.16L125.30 311.16L125.30 334.52L120.40 334.52L113.97 315.64Q114.03 316.57 114.13 317.88Q114.22 319.19 114.29 320.57Q114.35 321.94 114.35 323.10" fill="white" fill-opacity="0.9"/>
<path d="M161.48 325.24L151.24 325.24L151.24 322.68L161.48 322.68" fill="white" fill-opacity="0.9"/>
<path d="M195.02 334.84Q191.82 334.84 189.96 333.05Q188.11 331.26 188.11 328.12L188.11 317.56Q188.11 314.42 189.96 312.63Q191.82 310.84 195.02 310.84Q198.15 310.84 200.01 312.65Q201.87 314.46 201.87 317.56L198.99 317.56Q198.99 315.58 197.95 314.50Q196.91 313.43 195.02 313.43Q193.13 313.43 192.06 314.50Q190.99 315.58 190.99 317.56L190.99 328.12Q190.99 330.10 192.06 331.18Q193.13 332.25 195.02 332.25Q196.91 332.25 197.95 331.18Q198.99 330.10 198.99 328.12L201.87 328.12Q201.87 331.22 200.01 333.03Q198.15 334.84 195.02 334.84" fill="white" fill-opacity="0.9"/>
<path d="M213.96 334.84Q210.83 334.84 209 333.02Q207.18 331.19 207.18 327.80L207.18 317.88Q207.18 314.49 209 312.66Q210.83 310.84 213.96 310.84Q217.10 310.84 218.92 312.66Q220.75 314.49 220.75 317.85L220.75 327.80Q220.75 331.19 218.92 333.02Q217.10 334.84 213.96 334.84M213.96 332.25Q215.85 332.25 216.86 331.18Q217.87 330.10 217.87 328.12L217.87 317.56Q217.87 315.58 216.86 314.50Q215.85 313.43 213.96 313.43Q212.11 313.43 211.08 314.50Q210.06 315.58 210.06 317.56L210.06 328.12Q210.06 330.10 211.08 331.18Q212.11 332.25 213.96 332.25" fill="white" fill-opacity="0.9"/>
<path d="M228.65 334.52L225.87 334.52L225.87 311.16L230.12 311.16L233.10 321.27L236.20 311.16L240.46 311.16L240.46 334.52L237.67 334.52L237.67 323.48Q237.67 321.91 237.72 319.88Q237.77 317.85 237.87 315.77Q237.96 313.69 238.09 312.02L234.31 324.09L231.82 324.09L228.20 312.31Q228.46 314.68 228.55 317.50Q228.65 320.31 228.65 323.48" fill="white" fill-opacity="0.9"/>
<path d="M247.85 334.52L245.07 334.52L245.07 311.16L249.32 311.16L252.30 321.27L255.40 311.16L259.66 311.16L259.66 334.52L256.87 334.52L256.87 323.48Q256.87 321.91 256.92 319.88Q256.97 317.85 257.07 315.77Q257.16 313.69 257.29 312.02L253.51 324.09L251.02 324.09L247.40 312.31Q247.66 314.68 247.75 317.50Q247.85 320.31 247.85 323.48" fill="white" fill-opacity="0.9"/>
<path d="M271.56 334.84Q268.30 334.84 266.57 333.03Q264.84 331.22 264.84 328.12L264.84 311.16L267.72 311.16L267.72 328.12Q267.72 330.04 268.67 331.16Q269.61 332.28 271.56 332.28Q273.48 332.28 274.44 331.16Q275.40 330.04 275.40 328.12L275.40 311.16L278.28 311.16L278.28 328.12Q278.28 331.26 276.57 333.05Q274.86 334.84 271.56 334.84" fill="white" fill-opacity="0.9"/>
<path d="M286.83 334.52L284.04 334.52L284.04 311.16L287.88 311.16L295.02 331.16Q294.95 330.36 294.87 329.19Q294.79 328.02 294.75 326.73Q294.70 325.43 294.70 324.28L294.70 311.16L297.48 311.16L297.48 334.52L293.64 334.52L286.54 314.52Q286.60 315.29 286.67 316.46Q286.73 317.62 286.78 318.92Q286.83 320.22 286.83 321.40" fill="white" fill-opacity="0.9"/>
<path d="M316.20 334.52L303.72 334.52L303.72 331.90L308.49 331.90L308.49 313.78L303.72 313.78L303.72 311.16L316.20 311.16L316.20 313.78L311.43 313.78L311.43 331.90L316.20 331.90" fill="white" fill-opacity="0.9"/>
<path d="M330.60 334.52L327.72 334.52L327.72 313.78L321.32 313.78L321.32 311.16L337 311.16L337 313.78L330.60 313.78" fill="white" fill-opacity="0.9"/>
<path d="M349.80 334.52L346.92 334.52L346.92 325.78L339.88 311.16L342.95 311.16L347.50 320.76Q347.88 321.56 348.11 322.12Q348.33 322.68 348.39 322.94Q348.46 322.68 348.70 322.12Q348.94 321.56 349.32 320.76L353.87 311.16L356.84 311.16L349.80 325.78" fill="white" fill-opacity="0.9"/>
<path d="M382.83 334.52L380.04 334.52L380.04 311.16L383.88 311.16L391.02 331.16Q390.95 330.36 390.87 329.19Q390.79 328.02 390.75 326.73Q390.70 325.43 390.70 324.28L390.70 311.16L393.48 311.16L393.48 334.52L389.64 334.52L382.54 314.52Q382.60 315.29 382.67 316.46Q382.73 317.62 382.78 318.92Q382.83 320.22 382.83 321.40" fill="white" fill-opacity="0.9"/>
<path d="M405.96 334.84Q402.83 334.84 401 333.02Q399.18 331.19 399.18 327.80L399.18 317.88Q399.18 314.49 401 312.66Q402.83 310.84 405.96 310.84Q409.10 310.84 410.92 312.66Q412.75 314.49 412.75 317.85L412.75 327.80Q412.75 331.19 410.92 333.02Q409.10 334.84 405.96 334.84M405.96 332.25Q407.85 332.25 408.86 331.18Q409.87 330.10 409.87 328.12L409.87 317.56Q409.87 315.58 408.86 314.50Q407.85 313.43 405.96 313.43Q404.11 313.43 403.08 314.50Q402.06 315.58 402.06 317.56L402.06 328.12Q402.06 330.10 403.08 331.18Q404.11 332.25 405.96 332.25" fill="white" fill-opacity="0.9"/>
<path d="M424.55 334.52L418.51 334.52L418.51 311.16L424.55 311.16Q426.83 311.16 428.47 312.02Q430.12 312.89 431.03 314.46Q431.95 316.02 431.95 318.17L431.95 327.48Q431.95 329.62 431.03 331.21Q430.12 332.79 428.47 333.66Q426.83 334.52 424.55 334.52M421.39 313.72L421.39 331.96L424.55 331.96Q426.67 331.96 427.87 330.78Q429.07 329.59 429.07 327.48L429.07 318.17Q429.07 316.09 427.87 314.90Q426.67 313.72 424.55 313.72" fill="white" fill-opacity="0.9"/>
<path d="M451.40 334.52L437.96 334.52L437.96 311.16L451.40 311.16L451.40 313.78L440.81 313.78L440.81 321.02L450.28 321.02L450.28 323.58L440.81 323.58L440.81 331.90L451.40 331.90" fill="white" fill-opacity="0.9"/>
<path d="M463.69 334.84Q460.30 334.84 458.28 333.05Q456.27 331.26 456.27 328.12L459.15 328.12Q459.15 330.07 460.39 331.18Q461.64 332.28 463.69 332.28Q465.67 332.28 466.86 331.13Q468.04 329.98 468.04 328.12Q468.04 326.71 467.29 325.67Q466.54 324.63 465.13 324.25L461.58 323.26Q459.37 322.62 458.11 320.97Q456.84 319.32 456.84 317.08Q456.84 315.22 457.67 313.82Q458.51 312.41 460.01 311.62Q461.51 310.84 463.47 310.84Q465.45 310.84 466.97 311.62Q468.49 312.41 469.35 313.80Q470.22 315.19 470.22 317.02L467.34 317.02Q467.34 315.42 466.25 314.41Q465.16 313.40 463.47 313.40Q461.77 313.40 460.71 314.41Q459.66 315.42 459.66 317.02Q459.66 318.30 460.35 319.21Q461.03 320.12 462.28 320.47L465.93 321.50Q468.27 322.14 469.56 323.91Q470.86 325.69 470.86 328.12Q470.86 331.19 468.91 333.02Q466.95 334.84 463.69 334.84" fill="white" fill-opacity="0.9"/>
</g>
<path d="M73.41 197.64L71.20 197.64L75.76 180.12L78.66 180.12L83.20 197.64L81.02 197.64L79.86 192.98L74.56 192.98L73.41 197.64M76.34 185.74L74.99 191.16L79.41 191.16L78.06 185.76Q77.68 184.22 77.46 183.19Q77.25 182.16 77.20 181.85Q77.15 182.16 76.94 183.19Q76.72 184.22 76.34 185.74" fill="white" fill-opacity="0.7"/>
<path d="M88.77 197.64L86.61 197.64L86.61 180.12L92.25 180.12Q94.70 180.12 96.15 181.52Q97.60 182.93 97.60 185.28Q97.60 187.63 96.15 189.04Q94.70 190.44 92.25 190.44L88.77 190.44L88.77 197.64M88.77 182.06L88.77 188.50L92.25 188.50Q93.66 188.50 94.52 187.62Q95.37 186.74 95.37 185.28Q95.37 183.79 94.52 182.93Q93.66 182.06 92.25 182.06" fill="white" fill-opacity="0.7"/>
<path d="M110.68 197.64L101.32 197.64L101.32 195.67L104.90 195.67L104.90 182.09L101.32 182.09L101.32 180.12L110.68 180.12L110.68 182.09L107.10 182.09L107.10 195.67L110.68 195.67" fill="white" fill-opacity="0.7"/>
<path d="M132.45 197.64L130.29 197.64L130.29 184.44L132.45 184.44L132.45 186.96L132.50 186.96Q132.66 185.69 133.58 184.94Q134.49 184.20 136.02 184.20Q138.09 184.20 139.20 185.44Q140.32 186.67 140.32 188.95L140.32 190.08L138.16 190.08L138.16 188.95Q138.16 186.07 135.35 186.07Q133.94 186.07 133.19 186.89Q132.45 187.70 132.45 189.24" fill="white" fill-opacity="0.7"/>
<path d="M149.20 197.88Q146.87 197.88 145.44 196.48Q144.02 195.07 144.02 192.60L144.02 189.48Q144.02 187.01 145.44 185.60Q146.87 184.20 149.20 184.20Q150.76 184.20 151.92 184.82Q153.09 185.45 153.74 186.58Q154.38 187.70 154.38 189.24L154.38 191.59L146.13 191.59L146.13 192.84Q146.13 194.30 146.97 195.16Q147.81 196.01 149.20 196.01Q150.40 196.01 151.18 195.54Q151.96 195.07 152.13 194.28L154.29 194.28Q154.07 195.94 152.68 196.91Q151.29 197.88 149.20 197.88M146.13 189.24L146.13 189.91L152.27 189.91L152.27 189.24Q152.27 187.68 151.47 186.83Q150.66 185.98 149.20 185.98Q147.74 185.98 146.93 186.83Q146.13 187.68 146.13 189.24" fill="white" fill-opacity="0.7"/>
<path d="M168.76 197.64L164.92 197.64Q163.29 197.64 162.30 196.69Q161.32 195.74 161.32 194.16L161.32 186.41L157.53 186.41L157.53 184.44L161.32 184.44L161.32 180.72L163.48 180.72L163.48 184.44L168.88 184.44L168.88 186.41L163.48 186.41L163.48 194.16Q163.48 194.83 163.88 195.25Q164.27 195.67 164.92 195.67L168.76 195.67" fill="white" fill-opacity="0.7"/>
<path d="M175.65 197.64L173.49 197.64L173.49 184.44L175.65 184.44L175.65 186.96L175.70 186.96Q175.86 185.69 176.78 184.94Q177.69 184.20 179.22 184.20Q181.29 184.20 182.40 185.44Q183.52 186.67 183.52 188.95L183.52 190.08L181.36 190.08L181.36 188.95Q181.36 186.07 178.55 186.07Q177.14 186.07 176.39 186.89Q175.65 187.70 175.65 189.24" fill="white" fill-opacity="0.7"/>
<path d="M198.52 197.64L187.24 197.64L187.24 195.67L191.92 195.67L191.92 186.41L187.72 186.41L187.72 184.44L194.08 184.44L194.08 195.67L198.52 195.67L198.52 197.64M192.76 182.06Q191.97 182.06 191.51 181.66Q191.06 181.25 191.06 180.55Q191.06 179.83 191.51 179.41Q191.97 178.99 192.76 178.99Q193.55 178.99 194.01 179.41Q194.46 179.83 194.46 180.55Q194.46 181.25 194.01 181.66Q193.55 182.06 192.76 182.06" fill="white" fill-opacity="0.7"/>
<path d="M206.80 197.88Q204.47 197.88 203.04 196.48Q201.62 195.07 201.62 192.60L201.62 189.48Q201.62 187.01 203.04 185.60Q204.47 184.20 206.80 184.20Q208.36 184.20 209.52 184.82Q210.69 185.45 211.34 186.58Q211.98 187.70 211.98 189.24L211.98 191.59L203.73 191.59L203.73 192.84Q203.73 194.30 204.57 195.16Q205.41 196.01 206.80 196.01QNaN 196.01 208.78 195.54Q209.56 195.07 209.73 194.28L211.89 194.28Q211.67 195.94 210.28 196.91Q208.89 197.88 206.80 197.88M203.73 189.24L203.73 189.91L209.87 189.91L209.87 189.24Q209.87 187.68 209.07 186.83Q208.26 185.98 206.80 185.98Q205.34 185.98 204.53 186.83Q203.73 187.68 203.73 189.24" fill="white" fill-opacity="0.7"/>
<path d="M222.62 197.64L219.78 197.64L215.30 184.44L217.62 184.44L220.50 193.32Q220.77 194.11 220.96 194.84Q221.15 195.58 221.25 195.98Q221.37 195.58 221.54 194.84Q221.70 194.11 221.94 193.32L224.82 184.44L227.10 184.44" fill="white" fill-opacity="0.7"/>
<path d="M235.60 197.88Q233.27 197.88 231.84 196.48Q230.42 195.07 230.42 192.60L230.42 189.48Q230.42 187.01 231.84 185.60Q233.27 184.20 235.60 184.20Q237.16 184.20 238.32 184.82Q239.49 185.45 240.14 186.58Q240.78 187.70 240.78 189.24L240.78 191.59L232.53 191.59L232.53 192.84Q232.53 194.30 233.37 195.16Q234.21 196.01 235.60 196.01Q236.80 196.01 237.58 195.54Q238.36 195.07 238.53 194.28L240.69 194.28Q240.47 195.94 239.08 196.91Q237.69 197.88 235.60 197.88M232.53 189.24L232.53 189.91L238.67 189.91L238.67 189.24Q238.67 187.68 237.87 186.83Q237.06 185.98 235.60 185.98Q234.14 185.98 233.33 186.83Q232.53 187.68 232.53 189.24" fill="white" fill-opacity="0.7"/>
<path d="M250.53 197.83L249.47 197.83Q247.26 197.83 246.05 196.84Q244.84 195.84 244.84 194.02LNaN 194.02QNaN 194.93 247.65 195.44Q248.30 195.96 249.47 195.96L250.53 195.96Q251.73 195.96 252.39 195.43Q253.05 194.90 253.05 193.94Q253.05 192.24 251.49 192.02L247.84 191.50Q246.50 191.30 245.75 190.38Q245.01 189.46 245.01 187.94Q245.01 186.22 246.20 185.23Q247.38 184.25 249.47 184.25L250.53 184.25Q252.45 184.25 253.66 185.20Q254.87 186.14 254.97 187.68L252.78 187.68Q252.74 186.98 252.12 186.53Q251.51 186.07 250.53 186.07L249.47 186.07Q248.37 186.07 247.74 186.58Q247.12 187.08 247.12 187.94Q247.12 189.34 248.39 189.53L251.80 190.01Q255.16 190.49 255.16 193.94Q255.16 195.79 253.95 196.81Q252.74 197.83 250.53 197.83" fill="white" fill-opacity="0.7"/>
<path d="M275.42 197.64L273.33 197.64L273.33 180.12L276.52 180.12L278.75 187.70L281.08 180.12L284.27 180.12L284.27 197.64L282.18 197.64L282.18 189.36Q282.18 188.18 282.22 186.66Q282.26 185.14 282.33 183.58Q282.40 182.02 282.50 180.77L279.66 189.82L277.79 189.82L275.08 180.98Q275.27 182.76 275.34 184.87Q275.42 186.98 275.42 189.36" fill="white" fill-opacity="0.7"/>
<path d="M292.05 197.88Q290.01 197.88 288.81 196.74Q287.61 195.60 287.61 193.75Q287.61 192.53 288.16 191.62Q288.71 190.70 289.70 190.19Q290.68 189.67 291.95 189.67L296.03 189.67L296.03 188.64Q296.03 186.07 293.22 186.07Q291.98 186.07 291.21 186.53Q290.44 186.98 290.39 187.80L288.23 187.80Q288.35 186.24 289.68 185.22Q291.02 184.20 293.22 184.20Q295.62 184.20 296.91 185.35Q298.19 186.50 298.19 188.57L298.19 197.64L296.06 197.64L296.06 195.24L296.01 195.24Q295.82 196.46 294.78 197.17Q293.75 197.88 292.05 197.88M292.58 196.06Q294.16 196.06 295.10 195.29Q296.03 194.52 296.03 193.20L296.03 191.35L292.19 191.35Q291.14 191.35 290.48 191.99Q289.82 192.62 289.82 193.68Q289.82 194.78 290.55 195.42Q291.28 196.06 292.58 196.06" fill="white" fill-opacity="0.7"/>
<path d="M308.13 197.83L307.07 197.83Q304.86 197.83 303.65 196.84Q302.44 195.84 302.44 194.02L304.60 194.02Q304.60 194.93 305.25 195.44Q305.90 195.96 307.07 195.96L308.13 195.96Q309.33 195.96 309.99 195.43Q310.65 194.90 310.65 193.94Q310.65 192.24 309.09 192.02L305.44 191.50Q304.10 191.30 303.35 190.38Q302.61 189.46 302.61 187.94Q302.61 186.22 303.80 185.23Q304.98 184.25 307.07 184.25L308.13 184.25Q310.05 184.25 311.26 185.20Q312.47 186.14 312.57 187.68L310.38 187.68Q310.34 186.98 309.72 186.53Q309.11 186.07 308.13 186.07L307.07 186.07Q305.97 186.07 305.34 186.58Q304.72 187.08 304.72 187.94Q304.72 189.34 305.99 189.53L309.40 190.01Q312.76 190.49 312.76 193.94Q312.76 195.79 311.55 196.81Q310.34 197.83 308.13 197.83" fill="white" fill-opacity="0.7"/>
<path d="M327.16 197.64L323.32 197.64Q321.69 197.64 320.70 196.69Q319.72 195.74 319.72 194.16L319.72 186.41L315.93 186.41L315.93 184.44L319.72 184.44L319.72 180.72L321.88 180.72L321.88 184.44L327.28 184.44L327.28 186.41L321.88 186.41L321.88 194.16Q321.88 194.83 322.28 195.25Q322.67 195.67 323.32 195.67L327.16 195.67" fill="white" fill-opacity="0.7"/>
<path d="M336.40 197.88Q334.07 197.88 332.64 196.48Q331.22 195.07 331.22 192.60L331.22 189.48Q331.22 187.01 332.64 185.60Q334.07 184.20 336.40 184.20Q337.96 184.20 339.12 184.82Q340.29 185.45 340.94 186.58Q341.58 187.70 341.58 189.24L341.58 191.59L333.33 191.59L333.33 192.84Q333.33 194.30 334.17 195.16Q335.01 196.01 336.40 196.01Q337.60 196.01 338.38 195.54Q339.16 195.07 339.33 194.28L341.49 194.28Q341.27 195.94 339.88 196.91Q338.49 197.88 336.40 197.88M333.33 189.24L333.33 189.91L339.47 189.91L339.47 189.24Q339.47 187.68 338.67 186.83Q337.86 185.98 336.40 185.98Q334.94 185.98 334.13 186.83Q333.33 187.68 333.33 189.24" fill="white" fill-opacity="0.7"/>
<path d="M348.45 197.64L346.29 197.64L346.29 184.44L348.45 184.44L348.45 186.96L348.50 186.96Q348.66 185.69 349.58 184.94Q350.49 184.20 352.02 184.20Q354.09 184.20 355.20 185.44Q356.32 186.67 356.32 188.95L356.32 190.08L354.16 190.08L354.16 188.95Q354.16 186.07 351.35 186.07Q349.94 186.07 349.19 186.89Q348.45 187.70 348.45 189.24" fill="white" fill-opacity="0.7"/>
<path d="M365.39 197.88Q362.99 197.88 361.55 196.54Q360.11 195.19 360.11 192.84L360.11 189.24Q360.11 186.89 361.55 185.54Q362.99 184.20 365.39 184.20Q367.67 184.20 369.08 185.42Q370.48 186.65 370.55 188.76L368.39 188.76Q368.32 187.49 367.53 186.80Q366.74 186.12 365.39 186.12Q363.98 186.12 363.12 186.92Q362.27 187.73 362.27 189.22L362.27 192.84Q362.27 194.33 363.12 195.14Q363.98 195.96 365.39 195.96Q366.74 195.96 367.53 195.26Q368.32 194.57 368.39 193.32L370.55 193.32Q370.48 195.43 369.08 196.66Q367.67 197.88 365.39 197.88" fill="white" fill-opacity="0.7"/>
<path d="M378.45 197.88Q376.41 197.88 375.21 196.74Q374.01 195.60 374.01 193.75Q374.01 192.53 374.56 191.62Q375.11 190.70 376.10 190.19Q377.08 189.67 378.35 189.67L382.43 189.67L382.43 188.64Q382.43 186.07 379.62 186.07Q378.38 186.07 377.61 186.53Q376.84 186.98 376.79 187.80L374.63 187.80Q374.75 186.24 376.08 185.22Q377.42 184.20 379.62 184.20Q382.02 184.20 383.31 185.35Q384.59 186.50 384.59 188.57L384.59 197.64L382.46 197.64L382.46 195.24L382.41 195.24Q382.22 196.46 381.18 197.17Q380.15 197.88 378.45 197.88M378.98 196.06Q380.56 196.06 381.50 195.29Q382.43 194.52 382.43 193.20L382.43 191.35L378.59 191.35Q377.54 191.35 376.88 191.99Q376.22 192.62 376.22 193.68Q376.22 194.78 376.95 195.42Q377.68 196.06 378.98 196.06" fill="white" fill-opacity="0.7"/>
<path d="M391.65 197.64L389.49 197.64L389.49 184.44L391.65 184.44L391.65 186.96L391.70 186.96Q391.86 185.69 392.78 184.94Q393.69 184.20 395.22 184.20Q397.29 184.20 398.40 185.44Q399.52 186.67 399.52 188.95L399.52 190.08L397.36 190.08L397.36 188.95Q397.36 186.07 394.55 186.07Q393.14 186.07 392.39 186.89Q391.65 187.70 391.65 189.24" fill="white" fill-opacity="0.7"/>
<path d="M407.63 197.88Q405.66 197.88 404.48 196.56Q403.29 195.24 403.29 192.98L403.29 189.12Q403.29 186.84 404.46 185.52Q405.64 184.20 407.63 184.20Q409.12 184.20 410.09 184.94Q411.06 185.69 411.26 186.96L411.28 186.96L411.23 183.96L411.23 180.12L413.39 180.12L413.39 197.64L411.23 197.64L411.23 195.12L411.21 195.12Q411.04 196.42 410.08 197.15Q409.12 197.88 407.63 197.88M408.35 196.01Q409.70 196.01 410.46 195.17Q411.23 194.33 411.23 192.84L411.23 189.24Q411.23 187.75 410.46 186.91Q409.70 186.07 408.35 186.07Q406.98 186.07 406.22 186.78Q405.45 187.49 405.45 189.12L405.45 192.96Q405.45 194.57 406.22 195.29Q406.98 196.01 408.35 196.01" fill="white" fill-opacity="0.7"/>
<path d="M437.39 197.88Q434.99 197.88 433.55 196.54Q432.11 195.19 432.11 192.84L432.11 189.24Q432.11 186.89 433.55 185.54Q434.99 184.20 437.39 184.20Q439.67 184.20 441.08 185.42Q442.48 186.65 442.55 188.76L440.39 188.76Q440.32 187.49 439.53 186.80Q438.74 186.12 437.39 186.12Q435.98 186.12 435.12 186.92Q434.27 187.73 434.27 189.22L434.27 192.84Q434.27 194.33 435.12 195.14Q435.98 195.96 437.39 195.96Q438.74 195.96 439.53 195.26Q440.32 194.57 440.39 193.32L442.55 193.32Q442.48 195.43 441.08 196.66Q439.67 197.88 437.39 197.88" fill="white" fill-opacity="0.7"/>
<path d="M451.58 197.88Q449.30 197.88 447.93 196.52Q446.56 195.17 446.56 192.84L446.56 184.44L448.72 184.44L448.72 192.84Q448.72 194.28 449.49 195.13Q450.26 195.98 451.58 195.98Q452.92 195.98 453.70 195.13Q454.48 194.28 454.48 192.84L454.48 184.44L456.64 184.44L456.64 192.84Q456.64 195.17 455.25 196.52Q453.86 197.88 451.58 197.88" fill="white" fill-opacity="0.7"/>
<path d="M463.65 197.64L461.49 197.64L461.49 184.44L463.65 184.44L463.65 186.96L463.70 186.96Q463.86 185.69 464.78 184.94Q465.69 184.20 467.22 184.20Q469.29 184.20 470.40 185.44Q471.52 186.67 471.52 188.95L471.52 190.08L469.36 190.08L469.36 188.95Q469.36 186.07 466.55 186.07Q465.14 186.07 464.39 186.89Q463.65 187.70 463.65 189.24" fill="white" fill-opacity="0.7"/>
<path d="M478.05 197.64L475.89 197.64L475.89 184.44L478.05 184.44L478.05 186.96L478.10 186.96Q478.26 185.69 479.18 184.94Q480.09 184.20 481.62 184.20Q483.69 184.20 484.80 185.44Q485.92 186.67 485.92 188.95L485.92 190.08L483.76 190.08L483.76 188.95Q483.76 186.07 480.95 186.07Q479.54 186.07 478.79 186.89Q478.05 187.70 478.05 189.24" fill="white" fill-opacity="0.7"/>
<path d="M494.80 197.88Q492.47 197.88 491.04 196.48Q489.62 195.07 489.62 192.60L489.62 189.48Q489.62 187.01 491.04 185.60Q492.47 184.20 494.80 184.20Q496.36 184.20 497.52 184.82Q498.69 185.45 499.34 186.58Q499.98 187.70 499.98 189.24L499.98 191.59L491.73 191.59L491.73 192.84Q491.73 194.30 492.57 195.16Q493.41 196.01 494.80 196.01Q496 196.01 496.78 195.54Q497.56 195.07 497.73 194.28L499.89 194.28Q499.67 195.94 498.28 196.91Q496.89 197.88 494.80 197.88M491.73 189.24L491.73 189.91L497.87 189.91L497.87 189.24Q497.87 187.68 497.07 186.83Q496.26 185.98 494.80 185.98Q493.34 185.98 492.53 186.83Q491.73 187.68 491.73 189.24" fill="white" fill-opacity="0.7"/>
<path d="M506.37 197.64L504.21 197.64L504.21 184.44L506.37 184.44L506.37 186.96L506.39 186.96Q506.56 185.64 507.47 184.92Q508.38 184.20 509.90 184.20Q511.89 184.20 513.06 185.42Q514.24 186.65 514.24 188.76L514.24 197.64L512.08 197.64L512.08 189.14Q512.08 187.63 511.32 186.83Q510.57 186.02 509.27 186.02Q507.93 186.02 507.15 186.86Q506.37 187.70 506.37 189.24" fill="white" fill-opacity="0.7"/>
<path d="M523.79 197.88Q521.39 197.88 519.95 196.54Q518.51 195.19 518.51 192.84L518.51 189.24Q518.51 186.89 519.95 185.54Q521.39 184.20 523.79 184.20Q526.07 184.20 527.48 185.42Q528.88 186.65 528.95 188.76L526.79 188.76Q526.72 187.49 525.93 186.80Q525.14 186.12 523.79 186.12Q522.38 186.12 521.52 186.92Q520.67 187.73 520.67 189.22L520.67 192.84Q520.67 194.33 521.52 195.14Q522.38 195.96 523.79 195.96Q525.14 195.96 525.93 195.26Q526.72 194.57 526.79 193.32L528.95 193.32Q528.88 195.43 527.48 196.66Q526.07 197.88 523.79 197.88" fill="white" fill-opacity="0.7"/>
<path d="M537.33 201.96L535.07 201.96L537.02 196.82L532.10 184.44L534.42 184.44L537.54 192.60Q537.74 193.08 537.90 193.61Q538.07 194.14 538.14 194.52Q538.22 194.14 538.38 193.61Q538.55 193.08 538.72 192.60L541.62 184.44L543.90 184.44" fill="white" fill-opacity="0.7"/>
<path d="M566.99 197.88Q564.59 197.88 563.15 196.54Q561.71 195.19 561.71 192.84L561.71 189.24Q561.71 186.89 563.15 185.54Q564.59 184.20 566.99 184.20Q569.27 184.20 570.68 185.42Q572.08 186.65 572.15 188.76L569.99 188.76Q569.92 187.49 569.13 186.80Q568.34 186.12 566.99 186.12Q565.58 186.12 564.72 186.92Q563.87 187.73 563.87 189.22L563.87 192.84Q563.87 194.33 564.72 195.14Q565.58 195.96 566.99 195.96Q568.34 195.96 569.13 195.26Q569.92 194.57 569.99 193.32L572.15 193.32Q572.08 195.43 570.68 196.66Q569.27 197.88 566.99 197.88" fill="white" fill-opacity="0.7"/>
<path d="M581.20 197.83Q578.82 197.83 577.42 196.44Q576.02 195.05 576.02 192.55L576.02 189.53Q576.02 187.01 577.41 185.63Q578.80 184.25 581.20 184.25Q583.60 184.25 584.99 185.63Q586.38 187.01 586.38 189.53L586.38 192.55Q586.38 195.05 584.98 196.44Q583.58 197.83 581.20 197.83M581.20 195.91Q582.62 195.91 583.42 195.12Q584.22 194.33 584.22 192.79L584.22 189.29Q584.22 187.75 583.42 186.96Q582.62 186.17 581.20 186.17Q579.81 186.17 578.99 186.96Q578.18 187.75 578.18 189.29L578.18 192.79Q578.18 194.33 578.99 195.12Q579.81 195.91 581.20 195.91" fill="white" fill-opacity="0.7"/>
<path d="M592.77 197.64L590.61 197.64L590.61 184.44L592.77 184.44L592.77 186.96L592.79 186.96Q592.96 185.64 593.87 184.92Q594.78 184.20 596.30 184.20Q598.29 184.20 599.46 185.42Q600.64 186.65 600.64 188.76L600.64 197.64L598.48 197.64L598.48 189.14Q598.48 187.63 597.72 186.83Q596.97 186.02 595.67 186.02Q594.33 186.02 593.55 186.86Q592.77 187.70 592.77 189.24" fill="white" fill-opacity="0.7"/>
<path d="M611.42 197.64L608.58 197.64L604.10 184.44L606.42 184.44L609.30 193.32Q609.57 194.11 609.76 194.84Q609.95 195.58 610.05 195.98Q610.17 195.58 610.34 194.84Q610.50 194.11 610.74 193.32L613.62 184.44L615.90 184.44" fill="white" fill-opacity="0.7"/>
<path d="M624.40 197.88Q622.07 197.88 620.64 196.48Q619.22 195.07 619.22 192.60L619.22 189.48Q619.22 187.01 620.64 185.60Q622.07 184.20 624.40 184.20Q625.96 184.20 627.12 184.82Q628.29 185.45 628.94 186.58Q629.58 187.70 629.58 189.24L629.58 191.59L621.33 191.59L621.33 192.84Q621.33 194.30 622.17 195.16Q623.01 196.01 624.40 196.01Q625.60 196.01 626.38 195.54Q627.16 195.07 627.33 194.28L629.49 194.28Q629.27 195.94 627.88 196.91Q626.49 197.88 624.40 197.88M621.33 189.24L621.33 189.91L627.47 189.91L627.47 189.24Q627.47 187.68 626.67 186.83Q625.86 185.98 624.40 185.98Q622.94 185.98 622.13 186.83Q621.33 187.68 621.33 189.24" fill="white" fill-opacity="0.7"/>
<path d="M636.45 197.64L634.29 197.64L634.29 184.44L636.45 184.44L636.45 186.96L636.50 186.96Q636.66 185.69 637.58 184.94Q638.49 184.20 640.02 184.20Q642.09 184.20 643.20 185.44Q644.32 186.67 644.32 188.95L644.32 190.08L642.16 190.08L642.16 188.95Q642.16 186.07 639.35 186.07Q637.94 186.07 637.19 186.89Q636.45 187.70 636.45 189.24" fill="white" fill-opacity="0.7"/>
<path d="M653.73 197.83L652.67 197.83Q650.46 197.83 649.25 196.84Q648.04 195.84 648.04 194.02L650.20 194.02Q650.20 194.93 650.85 195.44Q651.50 195.96 652.67 195.96L653.73 195.96Q654.93 195.96 655.59 195.43Q656.25 194.90 656.25 193.94Q656.25 192.24 654.69 192.02L651.04 191.50Q649.70 191.30 648.95 190.38Q648.21 189.46 648.21 187.94Q648.21 186.22 649.40 185.23Q650.58 184.25 652.67 184.25L653.73 184.25Q655.65 184.25 656.86 185.20Q658.07 186.14 658.17 187.68L655.98 187.68Q655.94 186.98 655.32 186.53Q654.71 186.07 653.73 186.07L652.67 186.07Q651.57 186.07 650.94 186.58Q650.32 187.08 650.32 187.94Q650.32 189.34 651.59 189.53L655 190.01Q658.36 190.49 658.36 193.94Q658.36 195.79 657.15 196.81Q655.94 197.83 653.73 197.83" fill="white" fill-opacity="0.7"/>
<path d="M673.72 197.64L662.44 197.64L662.44 195.67L667.12 195.67L667.12 186.41L662.92 186.41L662.92 184.44L669.28 184.44L669.28 195.67L673.72 195.67L673.72 197.64M667.96 182.06Q667.17 182.06 666.71 181.66Q666.26 181.25 666.26 180.55Q666.26 179.83 666.71 179.41Q667.17 178.99 667.96 178.99Q668.75 178.99 669.21 179.41Q669.66 179.83 669.66 180.55Q669.66 181.25 669.21 181.66Q668.75 182.06 667.96 182.06" fill="white" fill-opacity="0.7"/>
<path d="M682 197.83Q679.62 197.83 678.22 196.44Q676.82 195.05 676.82 192.55L676.82 189.53Q676.82 187.01 678.21 185.63Q679.60 184.25 682 184.25Q684.40 184.25 685.79 185.63Q687.18 187.01 687.18 189.53L687.18 192.55Q687.18 195.05 685.78 196.44Q684.38 197.83 682 197.83M682 195.91Q683.42 195.91 684.22 195.12Q685.02 194.33 685.02 192.79L685.02 189.29Q685.02 187.75 684.22 186.96Q683.42 186.17 682 186.17Q680.61 186.17 679.79 186.96Q678.98 187.75 678.98 189.29L678.98 192.79Q678.98 194.33 679.79 195.12Q680.61 195.91 682 195.91" fill="white" fill-opacity="0.7"/>
<path d="M693.57 197.64L691.41 197.64L691.41 184.44L693.57 184.44L693.57 186.96L693.59 186.96Q693.76 185.64 694.67 184.92Q695.58 184.20 697.10 184.20Q699.09 184.20 700.26 185.42Q701.44 186.65 701.44 188.76L701.44 197.64L699.28 197.64L699.28 189.14Q699.28 187.63 698.52 186.83Q697.77 186.02 696.47 186.02Q695.13 186.02 694.35 186.86Q693.57 187.70 693.57 189.24" fill="white" fill-opacity="0.7"/>
<path d="M722.85 197.64L720.69 197.64L720.69 184.44L722.85 184.44L722.85 186.96L722.90 186.96Q723.06 185.69 723.98 184.94Q724.89 184.20 726.42 184.20Q728.49 184.20 729.60 185.44Q730.72 186.67 730.72 188.95L730.72 190.08L728.56 190.08L728.56 188.95Q728.56 186.07 725.75 186.07Q724.34 186.07 723.59 186.89Q722.85 187.70 722.85 189.24" fill="white" fill-opacity="0.7"/>
<path d="M738.45 197.88Q736.41 197.88 735.21 196.74Q734.01 195.60 734.01 193.75Q734.01 192.53 734.56 191.62Q735.11 190.70 736.10 190.19Q737.08 189.67 738.35 189.67L742.43 189.67L742.43 188.64Q742.43 186.07 739.62 186.07Q738.38 186.07 737.61 186.53Q736.84 186.98 736.79 187.80L734.63 187.80Q734.75 186.24 736.08 185.22Q737.42 184.20 739.62 184.20Q742.02 184.20 743.31 185.35Q744.59 186.50 744.59 188.57L744.59 197.64L742.46 197.64L742.46 195.24L742.41 195.24Q742.22 196.46 741.18 197.17Q740.15 197.88 738.45 197.88M738.98 196.06Q740.56 196.06 741.50 195.29Q742.43 194.52 742.43 193.20L742.43 191.35L738.59 191.35Q737.54 191.35 736.88 191.99Q736.22 192.62 736.22 193.68Q736.22 194.78 736.95 195.42Q737.68 196.06 738.98 196.06" fill="white" fill-opacity="0.7"/>
<path d="M759.16 197.64L755.32 197.64Q753.69 197.64 752.70 196.69Q751.72 195.74 751.72 194.16L751.72 186.41L747.93 186.41L747.93 184.44L751.72 184.44L751.72 180.72L753.88 180.72L753.88 184.44L759.28 184.44L759.28 186.41L753.88 186.41L753.88 194.16Q753.88 194.83 754.28 195.25Q754.67 195.67 755.32 195.67L759.16 195.67" fill="white" fill-opacity="0.7"/>
<path d="M768.40 197.88Q766.07 197.88 764.64 196.48Q763.22 195.07 763.22 192.60L763.22 189.48Q763.22 187.01 764.64 185.60Q766.07 184.20 768.40 184.20Q769.96 184.20 771.12 184.82Q772.29 185.45 772.94 186.58Q773.58 187.70 773.58 189.24L773.58 191.59L765.33 191.59L765.33 192.84Q765.33 194.30 766.17 195.16Q767.01 196.01 768.40 196.01Q769.60 196.01 770.38 195.54Q771.16 195.07 771.33 194.28L773.49 194.28Q773.27 195.94 771.88 196.91Q770.49 197.88 768.40 197.88M765.33 189.24L765.33 189.91L771.47 189.91L771.47 189.24Q771.47 187.68 770.67 186.83Q769.86 185.98 768.40 185.98Q766.94 185.98 766.13 186.83Q765.33 187.68 765.33 189.24" fill="white" fill-opacity="0.7"/>
<path d="M783.33 197.83L782.27 197.83Q780.06 197.83 778.85 196.84Q777.64 195.84 777.64 194.02L779.80 194.02Q779.80 194.93 780.45 195.44Q781.10 195.96 782.27 195.96L783.33 195.96Q784.53 195.96 785.19 195.43Q785.85 194.90 785.85 193.94Q785.85 192.24 784.29 192.02L780.64 191.50Q779.30 191.30 778.55 190.38Q777.81 189.46 777.81 187.94Q777.81 186.22 779 185.23Q780.18 184.25 782.27 184.25L783.33 184.25Q785.25 184.25 786.46 185.20Q787.67 186.14 787.77 187.68L785.58 187.68Q785.54 186.98 784.92 186.53Q784.31 186.07 783.33 186.07L782.27 186.07Q781.17 186.07 780.54 186.58Q779.92 187.08 779.92 187.94Q779.92 189.34 781.19 189.53L784.60 190.01Q787.96 190.49 787.96 193.94Q787.96 195.79 786.75 196.81Q785.54 197.83 783.33 197.83" fill="white" fill-opacity="0.7"/>
<path d="M810.45 197.88Q808.41 197.88 807.21 196.74Q806.01 195.60 806.01 193.75Q806.01 192.53 806.56 191.62Q807.11 190.70 808.10 190.19Q809.08 189.67 810.35 189.67L814.43 189.67L814.43 188.64Q814.43 186.07 811.62 186.07Q810.38 186.07 809.61 186.53Q808.84 186.98 808.79 187.80L806.63 187.80Q806.75 186.24 808.08 185.22Q809.42 184.20 811.62 184.20Q814.02 184.20 815.31 185.35Q816.59 186.50 816.59 188.57L816.59 197.64L814.46 197.64L814.46 195.24L814.41 195.24Q814.22 196.46 813.18 197.17Q812.15 197.88 810.45 197.88M810.98 196.06Q812.56 196.06 813.50 195.29Q814.43 194.52 814.43 193.20L814.43 191.35L810.59 191.35Q809.54 191.35 808.88 191.99Q808.22 192.62 808.22 193.68Q808.22 194.78 808.95 195.42Q809.68 196.06 810.98 196.06" fill="white" fill-opacity="0.7"/>
<path d="M823.17 197.64L821.01 197.64L821.01 184.44L823.17 184.44L823.17 186.96L823.19 186.96Q823.36 185.64 824.27 184.92Q825.18 184.20 826.70 184.20Q828.69 184.20 829.86 185.42Q831.04 186.65 831.04 188.76L831.04 197.64L828.88 197.64L828.88 189.14Q828.88 187.63 828.12 186.83Q827.37 186.02 826.07 186.02Q824.73 186.02 823.95 186.86Q823.17 187.70 823.17 189.24" fill="white" fill-opacity="0.7"/>
<path d="M839.63 197.88Q837.66 197.88 836.48 196.56Q835.29 195.24 835.29 192.98L835.29 189.12Q835.29 186.84 836.46 185.52Q837.64 184.20 839.63 184.20Q841.12 184.20 842.09 184.94Q843.06 185.69 843.26 186.96L843.28 186.96L843.23 183.96L843.23 180.12L845.39 180.12L845.39 197.64L843.23 197.64L843.23 195.12L843.21 195.12Q843.04 196.42 842.08 197.15Q841.12 197.88 839.63 197.88M840.35 196.01Q841.70 196.01 842.46 195.17Q843.23 194.33 843.23 192.84L843.23 189.24Q843.23 187.75 842.46 186.91Q841.70 186.07 840.35 186.07Q838.98 186.07 838.22 186.78Q837.45 187.49 837.45 189.12L837.45 192.96Q837.45 194.57 838.22 195.29Q838.98 196.01 840.35 196.01" fill="white" fill-opacity="0.7"/>
<path d="M868.05 197.88Q866.01 197.88 864.81 196.74Q863.61 195.60 863.61 193.75Q863.61 192.53 864.16 191.62Q864.71 190.70 865.70 190.19Q866.68 189.67 867.95 189.67L872.03 189.67L872.03 188.64Q872.03 186.07 869.22 186.07Q867.98 186.07 867.21 186.53Q866.44 186.98 866.39 187.80L864.23 187.80Q864.35 186.24 865.68 185.22Q867.02 184.20 869.22 184.20Q871.62 184.20 872.91 185.35Q874.19 186.50 874.19 188.57L874.19 197.64L872.06 197.64L872.06 195.24L872.01 195.24Q871.82 196.46 870.78 197.17Q869.75 197.88 868.05 197.88M868.58 196.06Q870.16 196.06 871.10 195.29Q872.03 194.52 872.03 193.20L872.03 191.35L868.19 191.35Q867.14 191.35 866.48 191.99Q865.82 192.62 865.82 193.68Q865.82 194.78 866.55 195.42Q867.28 196.06 868.58 196.06" fill="white" fill-opacity="0.7"/>
<path d="M879.86 197.64L877.84 197.64L877.84 184.44L879.71 184.44L879.71 186.19L879.76 186.19Q879.88 185.30 880.47 184.75Q881.06 184.20 881.97 184.20Q882.83 184.20 883.43 184.70Q884.03 185.21 884.30 186.07L884.32 186.07Q884.49 185.21 885.08 184.70Q885.66 184.20 886.58 184.20Q887.85 184.20 888.60 185.15Q889.36 186.10 889.36 187.61L889.36 197.64L887.34 197.64L887.34 187.58Q887.34 186.79 886.96 186.32Q886.58 185.86 885.90 185.86Q885.26 185.86 884.87 186.31Q884.49 186.77 884.49 187.56L884.49 197.64L882.71 197.64L882.71 187.58Q882.71 186.79 882.33 186.32Q881.94 185.86 881.30 185.86Q880.62 185.86 880.24 186.31Q879.86 186.77 879.86 187.56" fill="white" fill-opacity="0.7"/>
<path d="M898 197.83Q895.62 197.83 894.22 196.44Q892.82 195.05 892.82 192.55L892.82 189.53Q892.82 187.01 894.21 185.63Q895.60 184.25 898 184.25Q900.40 184.25 901.79 185.63Q903.18 187.01 903.18 189.53L903.18 192.55Q903.18 195.05 901.78 196.44Q900.38 197.83 898 197.83M898 195.91Q899.42 195.91 900.22 195.12Q901.02 194.33 901.02 192.79L901.02 189.29Q901.02 187.75 900.22 186.96Q899.42 186.17 898 186.17Q896.61 186.17 895.79 186.96Q894.98 187.75 894.98 189.29L894.98 192.79Q894.98 194.33 895.79 195.12Q896.61 195.91 898 195.91" fill="white" fill-opacity="0.7"/>
<path d="M912.38 197.88Q910.10 197.88 908.73 196.52Q907.36 195.17 907.36 192.84L907.36 184.44L909.52 184.44L909.52 192.84Q909.52 194.28 910.29 195.13Q911.06 195.98 912.38 195.98Q913.72 195.98 914.50 195.13Q915.28 194.28 915.28 192.84L915.28 184.44L917.44 184.44L917.44 192.84Q917.44 195.17 916.05 196.52Q914.66 197.88 912.38 197.88" fill="white" fill-opacity="0.7"/>
<path d="M923.97 197.64L921.81 197.64L921.81 184.44L923.97 184.44L923.97 186.96L923.99 186.96Q924.16 185.64 925.07 184.92Q925.98 184.20 927.50 184.20Q929.49 184.20 930.66 185.42Q931.84 186.65 931.84 188.76L931.84 197.64L929.68 197.64L929.68 189.14Q929.68 187.63 928.92 186.83Q928.17 186.02 926.87 186.02Q925.53 186.02 924.75 186.86Q923.97 187.70 923.97 189.24" fill="white" fill-opacity="0.7"/>
<path d="M946.36 197.64L942.52 197.64Q940.89 197.64 939.90 196.69Q938.92 195.74 938.92 194.16L938.92 186.41L935.13 186.41L935.13 184.44L938.92 184.44L938.92 180.72L941.08 180.72L941.08 184.44L946.48 184.44L946.48 186.41L941.08 186.41L941.08 194.16Q941.08 194.83 941.48 195.25Q941.87 195.67 942.52 195.67L946.36 195.67" fill="white" fill-opacity="0.7"/>
<path d="M956.13 197.83L955.07 197.83Q952.86 197.83 951.65 196.84Q950.44 195.84 950.44 194.02L952.60 194.02Q952.60 194.93 953.25 195.44Q953.90 195.96 955.07 195.96L956.13 195.96Q957.33 195.96 957.99 195.43Q958.65 194.90 958.65 193.94Q958.65 192.24 957.09 192.02L953.44 191.50Q952.10 191.30 951.35 190.38Q950.61 189.46 950.61 187.94Q950.61 186.22 951.80 185.23Q952.98 184.25 955.07 184.25L956.13 184.25Q958.05 184.25 959.26 185.20Q960.47 186.14 960.57 187.68L958.38 187.68Q958.34 186.98 957.72 186.53Q957.11 186.07 956.13 186.07L955.07 186.07Q953.97 186.07 953.34 186.58Q952.72 187.08 952.72 187.94Q952.72 189.34 953.99 189.53L957.40 190.01Q960.76 190.49 960.76 193.94Q960.76 195.79 959.55 196.81Q958.34 197.83 956.13 197.83" fill="white" fill-opacity="0.7"/>
<path d="M970 197.88Q969.11 197.88 968.57 197.35Q968.03 196.82 968.03 195.98Q968.03 195.10 968.57 194.54Q969.11 193.99 970 193.99Q970.89 193.99 971.43 194.54Q971.97 195.10 971.97 195.98Q971.97 196.82 971.43 197.35Q970.89 197.88 970 197.88" fill="white" fill-opacity="0.7"/>
<path d="M77.55 136.06L68.53 136.06L68.53 65.98L81.97 65.98L90.61 96.22L99.63 65.98L113.17 65.98L113.17 136.06L104.05 136.06L104.05 103.90Q104.05 98.81 104.24 92.62Q104.43 86.43 104.77 80.24Q105.10 74.04 105.49 69.05L94.54 104.96L86.48 104.96L75.92 69.92Q76.78 76.92 77.17 85.52Q77.55 94.11 77.55 103.90L77.55 136.06M133.71 136.06L124.02 136.06L142.16 65.98L154.74 65.98L172.78 136.06L163.09 136.06L158.67 117.82L138.13 117.82L133.71 136.06M145.14 88.92L140.05 109.95L156.75 109.95L151.76 89.02Q150.32 83.26 149.46 79.23Q148.59 75.20 148.40 73.76Q148.21 75.20 147.34 79.23Q146.48 83.26 145.14 88.92M206.38 137.02Q196.02 137.02 189.87 131.60Q183.73 126.17 183.73 116.67L193.23 116.67Q193.23 122.24 196.78 125.40Q200.34 128.57 206.38 128.57Q212.14 128.57 215.55 125.36Q218.96 122.14 218.96 116.76Q218.96 112.73 216.75 109.71Q214.54 106.68 210.51 105.63L200.14 102.84Q193.33 100.92 189.34 95.88Q185.36 90.84 185.36 83.93Q185.36 78.27 187.90 74Q190.45 69.72 195.06 67.37Q199.66 65.02 205.71 65.02Q211.86 65.02 216.51 67.37Q221.17 69.72 223.76 73.95Q226.35 78.17 226.35 83.74L216.94 83.74Q216.94 79.13 213.82 76.25Q210.70 73.37 205.71 73.37Q200.72 73.37 197.70 76.25Q194.67 79.13 194.67 83.74Q194.67 87.48 196.69 90.03Q198.70 92.57 202.35 93.63L213.01 96.51Q220.21 98.43 224.24 103.85Q228.27 109.28 228.27 116.76Q228.27 122.91 225.58 127.47Q222.90 132.03 217.95 134.52Q213.01 137.02 206.38 137.02M268.40 136.06L258.90 136.06L258.90 74.62L239.89 74.62L239.89 65.98L287.31 65.98L287.31 74.62L268.40 74.62L268.40 136.06M342.51 136.06L301.71 136.06L301.71 65.98L342.51 65.98L342.51 74.52L311.12 74.52L311.12 95.36L339.15 95.36L339.15 103.61L311.12 103.61L311.12 127.52L342.51 127.52L342.51 136.06M367.95 136.06L358.54 136.06L358.54 65.98L380.24 65.98Q386.67 65.98 391.47 68.52Q396.27 71.07 398.96 75.63Q401.65 80.19 401.65 86.33Q401.65 93.44 398.05 98.52Q394.45 103.61 388.50 105.72L402.61 136.06L392.14 136.06L378.80 106.78L367.95 106.78L367.95 136.06M367.95 74.43L367.95 98.33L380.24 98.33Q385.62 98.33 388.74 95.07Q391.86 91.80 391.86 86.43Q391.86 80.96 388.69 77.69Q385.52 74.43 380.24 74.43L367.95 74.43M437.17 137.02Q427.47 137.02 421.76 131.60Q416.05 126.17 416.05 116.67L416.05 85.28Q416.05 75.87 421.76 70.44Q427.47 65.02 437.17 65.02Q446.77 65.02 452.48 70.49Q458.19 75.96 458.19 85.28L448.69 85.28Q448.69 79.61 445.62 76.54Q442.54 73.47 437.17 73.47Q431.70 73.47 428.62 76.54Q425.55 79.61 425.55 85.28L425.55 116.67Q425.55 122.43 428.62 125.50Q431.70 128.57 437.17 128.57Q442.54 128.57 445.62 125.50Q448.69 122.43 448.69 116.67L458.19 116.67Q458.19 126.08 452.48 131.55Q446.77 137.02 437.17 137.02M479.31 136.06L469.62 136.06L487.76 65.98L500.34 65.98L518.38 136.06L508.69 136.06L504.27 117.82L483.73 117.82L479.31 136.06M490.74 88.92L485.65 109.95L502.35 109.95L497.36 89.02Q495.92 83.26 495.06 79.23Q494.19 75.20 NaN 73.76Q493.81 75.20 492.94 79.23Q492.08 83.26 490.74 88.92M540.75 136.06L531.34 136.06L531.34 65.98L553.04 65.98Q559.47 65.98 564.27 68.52Q569.07 71.07 571.76 75.63Q574.45 80.19 574.45 86.33Q574.45 93.44 570.85 98.52Q567.25 103.61 561.30 105.72L575.41 136.06L564.94 136.06L551.60 106.78L540.75 106.78L540.75 136.06M540.75 74.43L540.75 98.33L553.04 98.33Q558.42 98.33 561.54 95.07Q564.66 91.80 564.66 86.43Q564.66 80.96 561.49 77.69Q558.32 74.43 553.04 74.43L540.75 74.43M607.66 136.06L588.85 136.06L588.85 65.98L607.66 65.98Q614.48 65.98 619.52 68.62Q624.56 71.26 627.34 76.01Q630.13 80.76 630.13 87.20L630.13 114.75Q630.13 121.18 627.34 125.98Q624.56 130.78 619.52 133.42Q614.48 136.06 607.66 136.06M598.35 74.43L598.35 127.61L607.66 127.61Q613.71 127.61 617.17 124.16Q620.62 120.70 620.62 114.75L620.62 87.20Q620.62 81.24 617.17 77.84Q613.71 74.43 607.66 74.43L598.35 74.43M725.17 137.02Q715.47 137.02 709.76 131.60Q704.05 126.17 704.05 116.67L704.05 85.28Q704.05 75.87 709.76 70.44Q715.47 65.02 725.17 65.02Q734.77 65.02 740.48 70.49Q746.19 75.96 746.19 85.28L736.69 85.28Q736.69 79.61 733.62 76.54Q730.54 73.47 725.17 73.47Q719.70 73.47 716.62 76.54Q713.55 79.61 713.55 85.28L713.55 116.67Q713.55 122.43 716.62 125.50Q719.70 128.57 725.17 128.57Q730.54 128.57 733.62 125.50Q736.69 122.43 736.69 116.67L746.19 116.67Q746.19 126.08 740.48 131.55Q734.77 137.02 725.17 137.02MNaN 137.02Q772.11 137.02 766.78 131.55Q761.46 126.08 761.46 116.67L761.46 65.98L770.96 65.98L770.96 116.67Q770.96 122.24 773.70 125.40Q776.43 128.57 NaN 128.57Q787.47 128.57 790.30 125.40Q793.14 122.24 793.14 116.67L793.14 65.98L802.64 65.98L802.64 116.67Q802.64 126.17 797.31 131.60Q791.98 137.02 NaN 137.02M828.75 136.06L819.34 136.06L819.34 65.98L841.04 65.98Q847.47 65.98 852.27 68.52Q857.07 71.07 859.76 75.63Q862.45 80.19 862.45 86.33Q862.45 93.44 858.85 98.52Q855.25 103.61 849.30 105.72L863.41 136.06L852.94 136.06L839.60 106.78L828.75 106.78L828.75 136.06M828.75 74.43L828.75 98.33L841.04 98.33Q846.42 98.33 849.54 95.07Q852.66 91.80 852.66 86.43Q852.66 80.96 849.49 77.69Q846.32 74.43 841.04 74.43L828.75 74.43M886.35 136.06L876.94 136.06L876.94 65.98L898.64 65.98Q905.07 65.98 909.87 68.52Q914.67 71.07 917.36 75.63Q920.05 80.19 920.05 86.33Q920.05 93.44 916.45 98.52Q912.85 103.61 906.90 105.72L921.01 136.06L910.54 136.06L897.20 106.78L886.35 106.78L886.35 136.06M886.35 74.43L886.35 98.33L898.64 98.33Q904.02 98.33 907.14 95.07Q910.26 91.80 910.26 86.43Q910.26 80.96 907.09 77.69Q903.92 74.43 898.64 74.43L886.35 74.43M976.11 136.06L935.31 136.06L935.31 65.98L976.11 65.98L976.11 74.52L944.72 74.52L944.72 95.36L972.75 95.36L972.75 103.61L944.72 103.61L944.72 127.52L976.11 127.52L976.11 136.06M1000.78 136.06L991.86 136.06L991.86 65.98L1004.14 65.98L1025.07 125.12Q1024.78 122.62 1024.54 118.92Q1024.30 115.23 1024.16 111.24Q1024.02 107.26 1024.02 103.71L1024.02 65.98L1033.04 65.98L1033.04 136.06L1020.66 136.06L999.92 76.92Q1000.11 79.42 1000.30 83.02Q1000.50 86.62 1000.64 90.56Q1000.78 94.49 1000.78 97.95L1000.78 136.06M1070.77 137.02Q1061.07 137.02 1055.36 131.60Q1049.65 126.17 1049.65 116.67L1049.65 85.28Q1049.65 75.87 1055.36 70.44Q1061.07 65.02 1070.77 65.02Q1080.37 65.02 1086.08 70.49Q1091.79 75.96 1091.79 85.28L1082.29 85.28Q1082.29 79.61 1079.22 76.54Q1076.14 73.47 1070.77 73.47Q1065.30 73.47 1062.22 76.54Q1059.15 79.61 1059.15 85.28L1059.15 116.67Q1059.15 122.43 1062.22 125.50Q1065.30 128.57 1070.77 128.57Q1076.14 128.57 1079.22 125.50Q1082.29 122.43 1082.29 116.67L1091.79 116.67Q1091.79 126.08 1086.08 131.55Q1080.37 137.02 1070.77 137.02M1132.40 136.06L1122.90 136.06L1122.90 110.04L1101.87 65.98L1111.95 65.98L1124.91 93.63Q1126.06 96.12 1126.78 98.14Q1127.50 100.16 1127.70 101.02Q1127.98 100.16 1128.70 98.14Q1129.42 96.12 1130.67 93.63L1143.54 65.98L1153.33 65.98L1132.40 110.04L1132.40 136.06M1185.97 137.02Q1176.27 137.02 1170.56 131.60Q1164.85 126.17 1164.85 116.67L1164.85 85.28Q1164.85 75.87 1170.56 70.44Q1176.27 65.02 1185.97 65.02Q1195.57 65.02 1201.28 70.49Q1206.99 75.96 1206.99 85.28L1197.49 85.28Q1197.49 79.61 1194.42 76.54Q1191.34 73.47 1185.97 73.47Q1180.50 73.47 1177.42 76.54Q1174.35 79.61 1174.35 85.28L1174.35 116.67Q1174.35 122.43 1177.42 125.50Q1180.50 128.57 1185.97 128.57Q1191.34 128.57 1194.42 125.50Q1197.49 122.43 1197.49 116.67L1206.99 116.67Q1206.99 126.08 1201.28 131.55Q1195.57 137.02 1185.97 137.02M1242.80 137.02Q1233.20 137.02 1227.63 131.45Q1222.06 125.88 1222.06 115.71L1222.06 86.24Q1222.06 76.16 1227.63 70.59Q1233.20 65.02 1242.80 65.02Q1252.40 65.02 1257.97 70.54Q1263.54 76.06 1263.54 86.24L1263.54 115.71Q1263.54 125.88 1257.97 131.45Q1252.40 137.02 1242.80 137.02M1242.80 128.57Q1248.18 128.57 1251.10 125.50Q1254.03 122.43 1254.03 116.67L1254.03 85.28Q1254.03 79.61 1251.15 76.54Q1248.27 73.47 1242.80 73.47Q1237.33 73.47 1234.45 76.54Q1231.57 79.61 1231.57 85.28L1231.57 116.67Q1231.57 122.43 1234.50 125.50Q1237.42 128.57 1242.80 128.57M1288.78 136.06L1279.86 136.06L1279.86 65.98L1292.14 65.98L1313.07 125.12Q1312.78 122.62 1312.54 118.92Q1312.30 115.23 1312.16 111.24Q1312.02 107.26 1312.02 103.71L1312.02 65.98L1321.04 65.98L1321.04 136.06L1308.66 136.06L1287.92 76.92Q1288.11 79.42 1288.30 83.02Q1288.50 86.62 1288.64 90.56Q1288.78 94.49 1288.78 97.95L1288.78 136.06M1364.34 136.06L1351.57 136.06L1333.62 65.98L1343.41 65.98L1355.02 113.21Q1356.18 117.72 1356.99 121.90Q1357.81 126.08 1358.19 128.28Q1358.48 126.08 1359.39 121.85Q1360.30 117.63 1361.36 113.12L1372.59 65.98L1382.38 65.98L1364.34 136.06M1436.91 136.06L1396.11 136.06L1396.11 65.98L1436.91 65.98L1436.91 74.52L1405.52 74.52L1405.52 95.36L1433.55 95.36L1433.55 103.61L1405.52 103.61L1405.52 127.52L1436.91 127.52L1436.91 136.06M1462.35 136.06L1452.94 136.06L1452.94 65.98L1474.64 65.98Q1481.07 65.98 1485.87 68.52Q1490.67 71.07 1493.36 75.63Q1496.05 80.19 1496.05 86.33Q1496.05 93.44 1492.45 98.52Q1488.85 103.61 1482.90 105.72L1497.01 136.06L1486.54 136.06L1473.20 106.78L1462.35 106.78L1462.35 136.06M1462.35 74.43L1462.35 98.33L1474.64 98.33Q1480.02 98.33 1483.14 95.07Q1486.26 91.80 1486.26 86.43Q1486.26 80.96 1483.09 77.69Q1479.92 74.43 1474.64 74.43L1462.35 74.43M1531.18 137.02Q1520.82 137.02 1514.67 131.60Q1508.53 126.17 1508.53 116.67L1518.03 116.67Q1518.03 122.24 1521.58 125.40Q1525.14 128.57 1531.18 128.57Q1536.94 128.57 1540.35 125.36Q1543.76 122.14 1543.76 116.76Q1543.76 112.73 1541.55 109.71Q1539.34 106.68 1535.31 105.63L1524.94 102.84Q1518.13 100.92 1514.14 95.88Q1510.16 90.84 1510.16 83.93Q1510.16 78.27 1512.70 74Q1515.25 69.72 1519.86 67.37Q1524.46 65.02 1530.51 65.02Q1536.66 65.02 1541.31 67.37Q1545.97 69.72 1548.56 73.95Q1551.15 78.17 1551.15 83.74L1541.74 83.74Q1541.74 79.13 1538.62 76.25Q1535.50 73.37 1530.51 73.37Q1525.52 73.37 1522.50 76.25Q1519.47 79.13 1519.47 83.74Q1519.47 87.48 1521.49 90.03Q1523.50 92.57 1527.15 93.63L1537.81 96.51Q1545.01 98.43 1549.04 103.85Q1553.07 109.28 1553.07 116.76Q1553.07 122.91 1550.38 127.47Q1547.70 132.03 1542.75 134.52Q1537.81 137.02 1531.18 137.02M1607.50 136.06L1569.30 136.06L1569.30 127.42L1583.60 127.42L1583.60 74.62L1569.30 74.62L1569.30 65.98L1607.50 65.98L1607.50 74.62L1593.20 74.62L1593.20 127.42L1607.50 127.42L1607.50 136.06M1646 137.02Q1636.40 137.02 1630.83 131.45Q1625.26 125.88 1625.26 115.71L1625.26 86.24Q1625.26 76.16 1630.83 70.59Q1636.40 65.02 1646 65.02Q1655.60 65.02 1661.17 70.54Q1666.74 76.06 1666.74 86.24L1666.74 115.71Q1666.74 125.88 1661.17 131.45Q1655.60 137.02 1646 137.02M1646 128.57Q1651.38 128.57 1654.30 125.50Q1657.23 122.43 1657.23 116.67L1657.23 85.28Q1657.23 79.61 1654.35 76.54Q1651.47 73.47 1646 73.47Q1640.53 73.47 1637.65 76.54Q1634.77 79.61 1634.77 85.28L1634.77 116.67Q1634.77 122.43 1637.70 125.50Q1640.62 128.57 1646 128.57M1691.98 136.06L1683.06 136.06L1683.06 65.98L1695.34 65.98L1716.27 125.12Q1715.98 122.62 1715.74 118.92Q1715.50 115.23 1715.36 111.24Q1715.22 107.26 1715.22 103.71L1715.22 65.98L1724.24 65.98L1724.24 136.06L1711.86 136.06L1691.12 76.92Q1691.31 79.42 1691.50 83.02Q1691.70 86.62 1691.84 90.56Q1691.98 94.49 1691.98 97.95L1691.98 136.06M1761.97 137.02Q1752.27 137.02 1746.56 131.60Q1740.85 126.17 1740.85 116.67L1740.85 85.28Q1740.85 75.87 1746.56 70.44Q1752.27 65.02 1761.97 65.02Q1771.57 65.02 1777.28 70.49Q1782.99 75.96 1782.99 85.28L1773.49 85.28Q1773.49 79.61 1770.42 76.54Q1767.34 73.47 1761.97 73.47Q1756.50 73.47 1753.42 76.54Q1750.35 79.61 1750.35 85.28L1750.35 116.67Q1750.35 122.43 1753.42 125.50Q1756.50 128.57 1761.97 128.57Q1767.34 128.57 1770.42 125.50Q1773.49 122.43 1773.49 116.67L1782.99 116.67Q1782.99 126.08 1777.28 131.55Q1771.57 137.02 1761.97 137.02M1804.11 136.06L1794.42 136.06L1812.56 65.98L1825.14 65.98L1843.18 136.06L1833.49 136.06L1829.07 117.82L1808.53 117.82L1804.11 136.06M1815.54 88.92L1810.45 109.95L1827.15 109.95L1822.16 89.02Q1820.72 83.26 1819.86 79.23Q1818.99 75.20 1818.80 73.76Q1818.61 75.20 1817.74 79.23Q1816.88 83.26 1815.54 88.92M1900.59 136.06L1859.89 136.06L1859.89 65.98L1869.39 65.98L1869.39 127.42L1900.59 127.42L1900.59 136.06M1934.77 137.02Q1925.07 137.02 1919.36 131.60Q1913.65 126.17 1913.65 116.67L1913.65 85.28Q1913.65 75.87 1919.36 70.44Q1925.07 65.02 1934.77 65.02Q1944.37 65.02 1950.08 70.49Q1955.79 75.96 1955.79 85.28L1946.29 85.28Q1946.29 79.61 1943.22 76.54Q1940.14 73.47 1934.77 73.47Q1929.30 73.47 1926.22 76.54Q1923.15 79.61 1923.15 85.28L1923.15 116.67Q1923.15 122.43 1926.22 125.50Q1929.30 128.57 1934.77 128.57Q1940.14 128.57 1943.22 125.50Q1946.29 122.43 1946.29 116.67L1955.79 116.67Q1955.79 126.08 1950.08 131.55Q1944.37 137.02 1934.77 137.02M1991.60 137.02Q1981.71 137.02 1976.38 131.55Q1971.06 126.08 1971.06 116.67L1971.06 65.98L1980.56 65.98L1980.56 116.67Q1980.56 122.24 1983.30 125.40Q1986.03 128.57 1991.60 128.57Q1997.07 128.57 1999.90 125.40Q2002.74 122.24 2002.74 116.67L2002.74 65.98L2012.24 65.98L2012.24 116.67Q2012.24 126.17 2006.91 131.60Q2001.58 137.02 1991.60 137.02M2073.39 136.06L2032.69 136.06L2032.69 65.98L2042.19 65.98L2042.19 127.42L2073.39 127.42L2073.39 136.06M2092.11 136.06L2082.42 136.06L2100.56 65.98L2113.14 65.98L2131.18 136.06L2121.49 136.06L2117.07 117.82L2096.53 117.82L2092.11 136.06M2103.54 88.92L2098.45 109.95L2115.15 109.95L2110.16 89.02Q2108.72 83.26 2107.86 79.23Q2106.99 75.20 2106.80 73.76Q2106.61 75.20 2105.74 79.23Q2104.88 83.26 2103.54 88.92M2169.20 136.06L2159.70 136.06L2159.70 74.62L2140.69 74.62L2140.69 65.98L2188.11 65.98L2188.11 74.62L2169.20 74.62L2169.20 136.06M2222 137.02Q2212.40 137.02 2206.83 131.45Q2201.26 125.88 2201.26 115.71L2201.26 86.24Q2201.26 76.16 2206.83 70.59Q2212.40 65.02 2222 65.02Q2231.60 65.02 2237.17 70.54Q2242.74 76.06 2242.74 86.24L2242.74 115.71Q2242.74 125.88 2237.17 131.45Q2231.60 137.02 2222 137.02M2222 128.57Q2227.38 128.57 2230.30 125.50Q2233.23 122.43 2233.23 116.67L2233.23 85.28Q2233.23 79.61 2230.35 76.54Q2227.47 73.47 2222 73.47Q2216.53 73.47 2213.65 76.54Q2210.77 79.61 2210.77 85.28L2210.77 116.67Q2210.77 122.43 2213.70 125.50Q2216.62 128.57 2222 128.57M2268.75 136.06L2259.34 136.06L2259.34 65.98L2281.04 65.98Q2287.47 65.98 2292.27 68.52Q2297.07 71.07 2299.76 75.63Q2302.45 80.19 2302.45 86.33Q2302.45 93.44 2298.85 98.52Q2295.25 103.61 2289.30 105.72L2303.41 136.06L2292.94 136.06L2279.60 106.78L2268.75 106.78L2268.75 136.06M2268.75 74.43L2268.75 98.33L2281.04 98.33Q2286.42 98.33 2289.54 95.07Q2292.66 91.80 2292.66 86.43Q2292.66 80.96 2289.49 77.69Q2286.32 74.43 2281.04 74.43" fill="url(#paint2_linear_0_1)"/>
<g id="Group 1">
<rect id="Rectangle 1" x="26" y="168" width="12" height="184" rx="5" fill="url(#paint3_linear_0_1)" fill-opacity="0.9"/>
</g>
<g id="Group 1_2">
<rect id="Rectangle 2" x="26" y="38" width="12" height="119" rx="5" fill="url(#paint4_linear_0_1)" fill-opacity="0.9"/>
</g>
<ellipse id="Ellipse 1" cx="148.5" cy="573" rx="215.5" ry="214" fill="url(#paint5_linear_0_1)" fill-opacity="0.4"/>
<rect id="Rectangle 3" x="1229" y="48" width="300" height="300" rx="25" fill="#FFFBFB" fill-opacity="0.9"/>
<g id="placeholder-logo"><g transform="translate(1229,48) translate(0.0,60.0) scale(1.2000)"><g fill="#666666">
  <path d="m88.05,27.65c-3.15,4 -3.2,51.2 -0.05,54.35c2.75,2.75 71.7,3.15 74.45,0.45c2.85,-2.9 2.3,-53.85 -0.65,-55.9c-1.95,-1.35 -7.15,-1.55 -36.95,-1.55l-34.7,0l-2.1,2.65zm69.45,3.35c0.65,0 1,8.6 1,23.75l0,23.75l-33,0l-33,0l-0.25,-23c-0.15,-12.6 -0.1,-23.45 0.15,-24.1c0.35,-0.85 8.9,-1.05 32.25,-0.75c17.55,0.2 32.3,0.35 32.85,0.35z"/>
  <path d="m99.15,37.3c-6.85,7.35 4.25,17.35 11.4,10.25c1.35,-1.35 2.45,-3.65 2.45,-5.05c0,-6.45 -9.35,-9.95 -13.85,-5.2z"/>
  <path d="m135,42.5c-0.7,0.85 -5.25,5.15 -10.1,9.6l-8.85,8.1l-3.2,-3.2l-3.15,-3.15l-6.35,6.3c-5.55,5.5 -6.35,6.75 -6.35,10.05l0,3.8l28.5,0l28.5,0l0,-8.6l0,-8.55l-8.15,-7.7c-9.35,-8.85 -9.15,-8.7 -10.85,-6.65zm7.25,15.2c0.95,0.9 1.75,2.9 1.75,4.45c6.35,-5.05 4.75,-7.15 4.9,-11.55c0.95,0 0,0 0,0l-6.65,7.1z"/>
  <path d="m53.65,110.75c0.1,4.8 0.45,8.65 0.75,8.5c0.35,-0.15 1.3,-0.25 2.1,-0.25c1.1,0 1.5,-1.2 1.5,-4.75l0,-4.75l3.25,5c4.9,7.5 6.2,6.75 6.55,-3.75c0.25,-8.15 0.15,-8.75 -1.7,-8.75c-1.65,0 -2.05,0.8 -2.3,4.75l-0.3,4.75l-2.8,-4.75c-4.85,-8.25 -7.25,-6.9 -7.05,4z"/>
  <path d="m91,108.9c0,9.65 0.3,10.1 6.1,10.1c5.8,0 7.15,-2.65 1.65,-3.2l-3.25,-0.3l-0.3,-6.75c-0.25,-5.95 -0.55,-6.75 -2.25,-6.75c-1.75,0 -1.95,0.7 -1.95,6.9z"/>
  <path d="m151,102.45c0,0.25 1,2.15 2.25,4.2c1.2,2.1 2.45,5.8 2.75,8.25c0.65,5.9 4,6.95 4,1.25c0.05,-2.1 1.25,-5.85 2.95,-8.9l2.9,-5.25l-2.5,0c-1.8,0 -2.8,0.85 -3.75,3.1l-1.3,3.05l-1.25,-3.05c-1.1,-2.6 -6.05,-4.8 -6.05,-2.65z"/>
  <path d="m191,107.45c0,9.05 3.4,8.85 4.25,-0.2c0.45,-5 0.35,-5.25 -1.9,-5.25c-2.2,0 -2.35,0.4 -2.35,5.45z"/>
  <path d="m180.8,104.75c-1.3,5.35 0.65,13.6 3.45,14.35c2.3,0.6 2.75,0.4 2.75,-1.2c0,-1.05 -0.45,-1.9 -1,-1.9c-0.55,0 -1,-1.6 -1,-3.5c0,-1.95 0.45,-3.5 1,-3.5c0.55,0 1,-0.7 1,-1.5c0,-0.85 -0.45,-1.5 -1,-1.5c-0.55,0 -1,-0.7 -1,-1.5c0,-2.1 -3.65,-1.9 -4.2,0.25z"/>
  <path d="m71.55,106.55c-2.2,2.25 -2.05,9.7 0.3,11.8c4.5,4.1 10.15,0.75 10.15,-6.1c0,-4.85 -2,-7.25 -6,-7.25c-1.55,0 -3.55,0.7 -4.45,1.55zm6.25,5.8c0.25,3.05 0,3.65 -1.6,3.65c-2.3,0 -3.25,-2.65 -2.05,-5.85c1.25,-3.35 3.3,-2.1 3.65,2.2z"/>
  <path d="m105.75,106.1c-2.5,1.45 -2.45,9.95 0.1,12.25c4.3,3.9 10.15,0.35 10.15,-6.2c0,-6 -5.15,-9.05 -10.25,-6.05zm6.05,6.25c0.25,3.05 0,3.65 -1.6,3.65c-2.3,0 -3.25,-2.65 -2.05,-5.85c1.25,-3.35 3.3,-2.1 3.65,2.2z"/>
  <path d="m119.2,106.2c-3.8,3.8 -0.4,12.55 4.4,11.35c1.9,-0.45 2.45,-0.3 2.15,0.65c-0.25,0.7 -1.55,1.2 -2.85,1.1c-4.05,-0.3 -5.35,0.45 -3.85,2.25c0.85,1.05 2.6,1.45 5.35,1.25l4.1,-0.3l0.3,-8.75l0.3,-8.75l-4.35,0c-2.4,0 -4.9,0.55 -5.55,1.2zm6.6,4.45c0.4,2.85 -2.15,4.85 -3.75,2.95c-0.9,-1.1 -0.9,-2 -0.05,-3.6c1.35,-2.5 3.4,-2.15 3.8,0.65z"/>
  <path d="m133.55,106.55c-2.2,2.25 -2.05,9.7 0.3,11.8c4.5,4.1 10.15,0.75 10.15,-6.1c0,-4.85 -2,-7.25 -6,-7.25c-1.55,0 -3.55,0.7 -4.45,1.55zm6.25,5.8c0.25,3.05 0,3.65 -1.6,3.65c-2.3,0 -3.25,-2.65 -2.05,-5.85c1.25,-3.35 3.3,-2.1 3.65,2.2z"/>
  <path d="m167.65,106.85c-3.9,4.3 -0.75,13.15 4.7,13.15c2.4,0 5.65,-2.75 5.65,-4.85c0,-1.4 -2.65,-1.55 -3.5,-0.15c-0.95,1.55 -4.5,1.15 -4.5,-0.5c0,-1.1 1.1,-1.5 4,-1.5c3.15,0 4,-0.35 4,-1.8c0,-5.3 -6.85,-8.25 -10.35,-4.35z"/>
  <path d="m191,117.5c0,2.15 0.4,2.6 2.25,2.3c1.5,-0.2 2.25,-1 2.25,-2.3c0,-1.3 -0.75,-2.1 -2.25,-2.3c-1.85,-0.3 -2.25,0.15 -2.25,2.3z"/>
 </g></g></g>
</g>
<defs>
<linearGradient id="paint0_linear_0_1" x1="0" y1="198" x2="1584" y2="198" gradientUnits="userSpaceOnUse">
<stop stop-color="#3D052C"/>
<stop offset="1"/>
</linearGradient>
<linearGradient id="paint1_linear_0_1" x1="323" y1="-224" x2="323" y2="352" gradientUnits="userSpaceOnUse">
<stop stop-color="#28F6F2" stop-opacity="0.4"/>
<stop offset="1" stop-color="#17908E" stop-opacity="0.7"/>
</linearGradient>
<linearGradient id="paint2_linear_0_1" x1="148.5" y1="38" x2="148.5" y2="140" gradientUnits="userSpaceOnUse">
<stop stop-color="white"/>
<stop offset="1" stop-color="#999999"/>
</linearGradient>
<linearGradient id="paint3_linear_0_1" x1="38" y1="260" x2="26" y2="260" gradientUnits="userSpaceOnUse">
<stop stop-color="#D9D9D9"/>
<stop offset="1" stop-color="#737373"/>
</linearGradient>
<linearGradient id="paint4_linear_0_1" x1="38" y1="97.5" x2="26" y2="97.5" gradientUnits="userSpaceOnUse">
<stop stop-color="#D9D9D9"/>
<stop offset="1" stop-color="#737373"/>
</linearGradient>
<linearGradient id="paint5_linear_0_1" x1="27.5" y1="434.5" x2="148.5" y2="787" gradientUnits="userSpaceOnUse">
<stop stop-color="#2E21BC"/>
<stop offset="1" stop-color="#150F56"/>
</linearGradient>
<clipPath id="clip0_0_1">
<rect width="1584" height="396" fill="white"/>
</clipPath>
</defs>
</svg>
